<?xml version="1.0" encoding="UTF-8"?>
<svg version="1.1" xmlns="http://www.w3.org/2000/svg" width="1170" height="744">
<path d="M0 0 C386.1 0 772.2 0 1170 0 C1170 245.52 1170 491.04 1170 744 C783.9 744 397.8 744 0 744 C0 498.48 0 252.96 0 0 Z " fill="#000000" transform="translate(0,0)"/>
<path d="M0 0 C3.30036967 3.09069224 5.1935425 6.7416923 7.3125 10.6875 C11.33408647 18.05513679 15.49635615 25.3265181 19.75 32.5625 C24.59735375 40.8225913 29.34312551 49.13107679 34 57.5 C38.57566965 65.72202617 43.2357929 73.88576249 48 82 C52.73986633 90.07434941 57.38168293 98.19538292 61.9375 106.375 C67.29005013 115.98400215 72.74039697 125.53136434 78.24926758 135.05151367 C89.96158657 155.29370278 101.5408816 175.6134289 113 196 C113.47727539 196.84868652 113.95455078 197.69737305 114.44628906 198.57177734 C124.22870966 215.99182793 124.22870966 215.99182793 128 224 C128.804375 225.7015625 128.804375 225.7015625 129.625 227.4375 C131.13282005 231.34412468 132.19396287 235.25981784 133.24609375 239.30859375 C133.89502473 241.62524373 134.65408312 243.77688935 135.5625 246 C138.87420839 254.5356166 139.32300583 263.50369307 139.25 272.5625 C139.25773437 273.52607422 139.26546875 274.48964844 139.2734375 275.48242188 C139.24760193 285.06095959 137.42713729 293.11020292 134 302 C134.93721893 301.94884285 134.93721893 301.94884285 135.89337158 301.89665222 C142.44805722 301.56008257 148.99516864 301.37482426 155.55761719 301.27368164 C157.9989071 301.21670099 160.43963932 301.12225397 162.87792969 300.98852539 C179.15166344 300.12693564 179.15166344 300.12693564 186 303 C191.54434035 308.0215045 194.39945736 314.79265927 197.05847168 321.65567017 C198.11452604 324.28516063 199.50512709 326.59855319 201 329 C201 329.66 201 330.32 201 331 C178.29426258 331.07022294 155.58854319 331.12305311 132.88271904 331.15543652 C122.33893061 331.17087539 111.79520984 331.1919077 101.25146484 331.22631836 C92.05665576 331.2563122 82.86189569 331.27559663 73.66703904 331.28226548 C68.80286532 331.28616088 63.9388318 331.29525292 59.07470322 331.31719017 C54.48647101 331.3377134 49.89843534 331.34380214 45.31016159 331.33932304 C43.63574654 331.34014122 41.96132419 331.3460118 40.28694916 331.35761642 C30.03947958 331.42509136 20.98293461 330.5132163 11 328 C9.47447021 327.7023114 7.94605614 327.41865263 6.4140625 327.15625 C-0.35799356 325.98335782 -6.66159292 324.73207202 -13 322 C-13.7734375 321.72542969 -14.546875 321.45085937 -15.34375 321.16796875 C-23.40239202 318.2454674 -30.02823349 313.72484718 -36.375 308 C-38.72031648 305.75591052 -38.72031648 305.75591052 -41.0234375 306.14453125 C-44.19355947 307.51658009 -44.85703629 309.83556696 -46.25 312.85546875 C-47.22637512 315.64729135 -47.29275784 318.07242161 -47 321 C-46.2265625 321.3403125 -46.2265625 321.3403125 -45.4375 321.6875 C-43 323 -43 323 -39.8125 325.3125 C-33.00368092 330.213115 -26.59071394 333.41839548 -18.3828125 335.32421875 C-16 336 -16 336 -13 338 C-7.93432242 339.55632263 -2.70300716 340.24537956 2.56640625 340.65625 C5 341 5 341 8.62454224 342.00407982 C12.94656567 343.09307892 17.0003153 343.29003268 21.44091797 343.2784729 C22.65786079 343.2871615 22.65786079 343.2871615 23.89938831 343.29602563 C26.59702924 343.31292684 29.29449806 343.31589356 31.9921875 343.31884766 C33.93423375 343.32815266 35.87627602 343.33832218 37.8183136 343.34928894 C43.07592822 343.37653846 48.33351612 343.39172341 53.59118271 343.40471697 C59.09117439 343.42036959 64.59111168 343.44715303 70.09106445 343.4727478 C80.49953033 343.51949784 90.90800648 343.55626024 101.31652355 343.58942068 C113.16899608 343.62766873 125.02141393 343.67707188 136.87384033 343.72740483 C161.24918634 343.83066855 185.62456749 343.91994704 210 344 C212.13017236 347.72623466 214.25322065 351.45648082 216.375 355.1875 C216.97828125 356.24259766 217.5815625 357.29769531 218.203125 358.38476562 C218.78320312 359.40634766 219.36328125 360.42792969 219.9609375 361.48046875 C220.49509277 362.41785889 221.02924805 363.35524902 221.57958984 364.32104492 C222.91255591 366.83507666 223.99961005 369.33862506 225 372 C198.31195583 372.07035975 171.62392575 372.12311944 144.93580723 372.15543652 C132.54156438 372.17084669 120.14737947 372.19182312 107.75317383 372.22631836 C96.9391378 372.25640114 86.12514376 372.2756174 75.31106704 372.28226548 C69.5953262 372.28614605 63.8797054 372.29514101 58.16400337 372.31719017 C-3.47645891 372.54557529 -3.47645891 372.54557529 -22.76953125 364.84375 C-25.47955272 363.81859302 -28.23355228 362.98582689 -31 362.125 C-36.252128 360.39636771 -40.4711002 358.11688716 -45 355 C-45.99 354.443125 -46.98 353.88625 -48 353.3125 C-48.66 352.879375 -49.32 352.44625 -50 352 C-50 351.34 -50 350.68 -50 350 C-50.59554687 349.74476563 -51.19109375 349.48953125 -51.8046875 349.2265625 C-54.21483731 347.87996634 -55.42876502 346.53303717 -57.125 344.375 C-58.56168718 342.49549039 -58.56168718 342.49549039 -60 341 C-60.66 341 -61.32 341 -62 341 C-63.06368149 342.71571224 -64.10028172 344.44823601 -65.125 346.1875 C-65.70507812 347.15042969 -66.28515625 348.11335938 -66.8828125 349.10546875 C-68.26960946 351.91291234 -68.26960946 351.91291234 -67.4375 354.6328125 C-65.85432013 357.23989675 -64.25364273 358.79055373 -61.875 360.6875 C-60.54968938 361.75104998 -59.24853289 362.84728475 -58 364 C-58 364.66 -58 365.32 -58 366 C-57.01 366 -56.02 366 -55 366 C-55 366.66 -55 367.32 -55 368 C-53.92105469 368.41958984 -53.92105469 368.41958984 -52.8203125 368.84765625 C-50.11696204 369.9522108 -47.50802419 371.17600632 -44.875 372.4375 C-40.13838073 374.61672944 -35.47381346 376.10864272 -30.41015625 377.32421875 C-28.06674974 377.98128411 -26.16668944 378.91233917 -24 380 C-17.41705423 381.85486317 -10.6838775 382.35239759 -3.8828125 382.75390625 C-1 383 -1 383 0.92393804 383.50671428 C3.05931496 384.01409362 4.90822291 384.13034575 7.09980392 384.1386652 C7.9124325 384.14413964 8.72506107 384.14961409 9.56231475 384.15525442 C10.44947244 384.15623253 11.33663013 384.15721064 12.25067139 384.15821838 C13.67074883 384.16562535 13.67074883 384.16562535 15.1195147 384.17318195 C18.29940125 384.18856938 21.47926758 384.19692098 24.65917969 384.20532227 C26.93560464 384.21489981 29.21202781 384.22490981 31.4884491 384.23532104 C37.67602003 384.26238958 43.86359862 384.28338862 50.0511961 384.30332303 C56.5147968 384.32517054 62.9783739 384.35256527 69.44195557 384.37937927 C80.29316219 384.42364468 91.14437601 384.46447711 101.99560547 384.50268555 C113.1723729 384.54204963 124.34912954 384.58347804 135.52587891 384.62768555 C136.21482399 384.63040982 136.90376908 384.63313409 137.61359128 384.63594092 C141.06982934 384.64962055 144.52606723 384.66334079 147.98230505 384.67708123 C176.6548474 384.79101773 205.32741369 384.89776029 234 385 C234.35304199 385.65073486 234.70608398 386.30146973 235.06982422 386.97192383 C236.67007987 389.91958316 238.27251401 392.86605264 239.875 395.8125 C240.43058594 396.83666016 240.98617188 397.86082031 241.55859375 398.91601562 C242.36103516 400.39038086 242.36103516 400.39038086 243.1796875 401.89453125 C243.67194824 402.80050049 244.16420898 403.70646973 244.67138672 404.63989258 C245.70311696 406.47262618 246.83336384 408.25004576 248 410 C248 410.99 248 411.98 248 413 C217.17173124 413.0916565 186.34349426 413.16224654 155.51512139 413.20426132 C151.85855076 413.20926292 148.20198039 413.21444032 144.54541016 413.21972656 C143.45367727 413.22130043 143.45367727 413.22130043 142.33988918 413.22290608 C130.62336816 413.24021408 118.90692731 413.27169743 107.19045351 413.30861118 C95.12856129 413.34629043 83.06671045 413.36829215 71.00476182 413.37635398 C64.24645805 413.3813045 57.48834566 413.39351478 50.73009872 413.42292023 C-24.54602026 413.73710135 -24.54602026 413.73710135 -51 401 C-52.6853613 400.24520629 -54.37284315 399.49512817 -56.0625 398.75 C-57.375 398.16666667 -58.6875 397.58333333 -60 397 C-60 396.34 -60 395.68 -60 395 C-60.99 395 -61.98 395 -63 395 C-63 394.34 -63 393.68 -63 393 C-63.72960937 392.75765625 -64.45921875 392.5153125 -65.2109375 392.265625 C-71.87845606 389.24002834 -77.38595663 382.79651277 -80 376 C-80.66 376 -81.32 376 -82 376 C-82.42297363 376.77077881 -82.84594727 377.54155762 -83.28173828 378.33569336 C-84.87766104 381.2393317 -86.4772013 384.14091781 -88.07910156 387.04125977 C-88.7670475 388.2885231 -89.45361094 389.53655014 -90.13867188 390.78540039 C-91.78428311 393.78431035 -93.44842198 396.76795009 -95.16259766 399.72827148 C-97.00464208 402.88197922 -97.00464208 402.88197922 -98.25537109 405.86743164 C-99.60147076 408.61461252 -100.53587837 410.16964976 -103 412 C-108.50463582 413.09278077 -113.79735526 412.85112406 -119.375 412.5625 C-120.8892043 412.51731679 -122.40353766 412.47625881 -123.91796875 412.43945312 C-127.61467578 412.34065144 -131.30651617 412.18559423 -135 412 C-131.71357266 405.29577163 -128.3749569 398.6954221 -124.5 392.3125 C-120.30992439 385.29830858 -116.28642421 378.2011633 -112.3125 371.0625 C-106.81188934 361.19059294 -101.20846882 351.38332285 -95.54296875 341.60522461 C-91.41462225 334.4734202 -87.34649888 327.31052254 -83.3125 320.125 C-78.70733038 311.92243831 -73.92627873 303.84544949 -69.03979492 295.80786133 C-65.82719543 290.48670604 -62.97631782 285.12119838 -60.28125 279.51953125 C-58.62880338 276.27005542 -56.69097419 273.31249387 -54.609375 270.32421875 C-53.45931721 268.66333433 -52.34879474 266.97479172 -51.265625 265.26953125 C-46.28369896 257.47755189 -40.59983883 250.58125659 -34.46679688 243.67749023 C-33.46623577 242.53320672 -32.48373056 241.3729435 -31.51757812 240.19946289 C-28.22644829 236.21515227 -24.91857363 233.1260874 -20.75 230.0625 C-19.19539063 228.90427734 -19.19539063 228.90427734 -17.609375 227.72265625 C-15 226 -15 226 -13 226 C-13 225.34 -13 224.68 -13 224 C-11.56705502 223.15885829 -10.12845595 222.32734313 -8.6875 221.5 C-7.88699219 221.0359375 -7.08648438 220.571875 -6.26171875 220.09375 C-4 219 -4 219 -1 219 C-1.42152344 218.22914063 -1.84304688 217.45828125 -2.27734375 216.6640625 C-2.82519531 215.66117188 -3.37304688 214.65828125 -3.9375 213.625 C-4.48277344 212.62726563 -5.02804687 211.62953125 -5.58984375 210.6015625 C-6.4149759 209.07929654 -7.22564391 207.54871217 -8 206 C-12.71320756 206.51518074 -15.74398212 207.76798818 -19.6875 210.375 C-20.61949219 210.98085938 -21.55148437 211.58671875 -22.51171875 212.2109375 C-25.21410932 214.15394359 -27.30183649 216.21456605 -29.5 218.6875 C-31 220 -31 220 -34 220 C-34.2165625 220.54011719 -34.433125 221.08023438 -34.65625 221.63671875 C-36.46631728 224.82012196 -38.96007885 227.21355698 -41.5 229.8125 C-50.60842559 239.42191645 -57.25567349 250.40355361 -63.69921875 261.921875 C-66.00366035 266.03672594 -68.39576363 270.09831121 -70.78588867 274.16381836 C-77.12460694 284.95192139 -83.27295775 295.83162724 -89.3203125 306.78540039 C-94.25610185 315.70793592 -99.32615034 324.54647779 -104.44287109 333.36621094 C-108.71896089 340.74802174 -112.91281471 348.17148436 -117.0625 355.625 C-122.22093128 364.88446767 -127.49929021 374.06583592 -132.86010742 383.20947266 C-138.653883 393.09437667 -144.33027871 403.04341628 -150 413 C-160.56 413 -171.12 413 -182 413 C-180.49435603 409.23589007 -178.96798631 405.96459936 -177.015625 402.44921875 C-176.11783325 400.83067993 -176.11783325 400.83067993 -175.2019043 399.17944336 C-174.55149553 398.01533594 -173.90085499 396.85135799 -173.25 395.6875 C-172.91908356 395.09341339 -172.58816711 394.49932678 -172.2472229 393.88723755 C-166.9238068 384.33140149 -161.4617808 374.8620186 -155.92089844 365.43041992 C-152.53579086 359.6610484 -149.22143567 353.86222899 -146 348 C-142.19569796 341.07822922 -138.24773243 334.24926342 -134.25 327.4375 C-129.37887331 319.13716903 -124.61429454 310.786318 -119.9375 302.375 C-114.91110884 293.33610371 -109.75346098 284.38878225 -104.43725586 275.51708984 C-100.79739708 269.4271552 -97.37191104 263.24164584 -94 257 C-82.38821943 235.66628835 -70.26062713 217.18378516 -53 200 C-52.13117188 199.13117188 -51.26234375 198.26234375 -50.3671875 197.3671875 C-45.14381491 192.44336316 -39.40708716 189.17669824 -33 186 C-32.03578125 185.51144531 -31.0715625 185.02289063 -30.078125 184.51953125 C-27.72502099 183.33300846 -25.36624817 182.16002622 -23 181 C-23.34933594 180.31292969 -23.69867187 179.62585938 -24.05859375 178.91796875 C-24.51363281 178.01691406 -24.96867188 177.11585938 -25.4375 176.1875 C-26.11619141 174.84751953 -26.11619141 174.84751953 -26.80859375 173.48046875 C-28 171 -28 171 -29 168 C-37.93123428 170.90886354 -44.81775837 174.56959175 -52.3203125 180.109375 C-55 182 -55 182 -58 183 C-58 183.66 -58 184.32 -58 185 C-58.66 185 -59.32 185 -60 185 C-60 185.66 -60 186.32 -60 187 C-60.804375 187.639375 -61.60875 188.27875 -62.4375 188.9375 C-67.39635047 192.91854897 -71.10530178 198.01452963 -75 203 C-75.79277344 204.01191406 -76.58554687 205.02382813 -77.40234375 206.06640625 C-81.18585686 210.99567542 -84.68859389 215.8573911 -87.578125 221.359375 C-89.51054574 224.94815637 -91.60516515 228.43417101 -93.6875 231.9375 C-97.14811589 237.78764996 -100.52571051 243.67547812 -103.8125 249.625 C-112.64400268 265.60905895 -121.66552224 281.47399084 -130.90698242 297.22460938 C-135.02395516 304.26491369 -138.98353654 311.37733004 -142.8762207 318.54345703 C-146.88121623 325.87550956 -151.11623513 333.06309513 -155.41040039 340.22900391 C-159.10130744 346.4036263 -162.58515927 352.66907523 -166 359 C-173.18179218 372.16143092 -180.53889594 385.24411921 -188.33520508 398.05273438 C-190.08207718 401.00903204 -190.08207718 401.00903204 -191.4050293 404.36914062 C-192.97497039 407.84934353 -194.27500454 410.31435772 -197 413 C-202.55124673 414.47702474 -207.7539486 414.14440684 -213.4375 413.75 C-214.94705351 413.68974097 -216.45683797 413.63499931 -217.96679688 413.5859375 C-221.64936449 413.45431492 -225.32320589 413.24772388 -229 413 C-227.65544302 409.45565573 -226.08771656 406.19200807 -224.234375 402.88671875 C-223.68136719 401.89865234 -223.12835938 400.91058594 -222.55859375 399.89257812 C-221.66333984 398.30606445 -221.66333984 398.30606445 -220.75 396.6875 C-220.12738281 395.57955078 -219.50476563 394.47160156 -218.86328125 393.33007812 C-214.07886134 384.84423074 -209.18494065 376.42499183 -204.25292969 368.02416992 C-199.47580197 359.86778989 -194.85475457 351.63031259 -190.25878906 343.37084961 C-186.17478231 336.04995291 -181.9920536 328.79284085 -177.75 321.5625 C-172.9028536 313.2990034 -168.17055847 304.98563138 -163.54296875 296.59765625 C-153.36704108 278.16008433 -142.77164888 259.96810335 -132.12475586 241.80004883 C-131.50737549 240.74454834 -130.88999512 239.68904785 -130.25390625 238.6015625 C-129.69517822 237.64717285 -129.1364502 236.6927832 -128.56079102 235.70947266 C-127.10398992 233.18052246 -125.69629227 230.63196874 -124.3125 228.0625 C-110.04588511 201.75363491 -110.04588511 201.75363491 -102 191 C-101.401875 190.13890625 -100.80375 189.2778125 -100.1875 188.390625 C-93.00317922 178.13558647 -84.70422414 168.93580061 -75 161 C-73.6078125 159.7934375 -73.6078125 159.7934375 -72.1875 158.5625 C-70 157 -70 157 -67 157 C-67 156.34 -67 155.68 -67 155 C-61.73498761 152.27384734 -56.64861118 149.83579863 -51 148 C-50.34 147.34 -49.68 146.68 -49 146 C-47.01178687 145.60235737 -45.01055661 145.26224651 -43 145 C-44.42215165 142.47586528 -45.84513109 139.95220381 -47.26928711 137.42919922 C-48.46627737 135.30704711 -49.66109735 133.18366943 -50.85375977 131.05908203 C-54.56528794 124.45416863 -54.56528794 124.45416863 -58.4921875 117.9765625 C-59.13414062 116.95304687 -59.77609375 115.92953125 -60.4375 114.875 C-60.99308594 114.02679688 -61.54867187 113.17859375 -62.12109375 112.3046875 C-63 110 -63 110 -62.24487305 107.70092773 C-60.94103266 104.87206204 -59.50310943 102.1868293 -57.9609375 99.48046875 C-57.38085938 98.45888672 -56.80078125 97.43730469 -56.203125 96.38476562 C-55.59984375 95.32966797 -54.9965625 94.27457031 -54.375 93.1875 C-53.76398438 92.11306641 -53.15296875 91.03863281 -52.5234375 89.93164062 C-51.01844115 87.28613924 -49.51054209 84.6423375 -48 82 C-44.32113129 83.22628957 -44.14779207 84.04086966 -42.3984375 87.3828125 C-41.91294434 88.29514648 -41.42745117 89.20748047 -40.92724609 90.14746094 C-40.41500488 91.13004883 -39.90276367 92.11263672 -39.375 93.125 C-38.29415269 95.15497146 -37.21080971 97.18361604 -36.125 99.2109375 C-35.32642578 100.70318848 -35.32642578 100.70318848 -34.51171875 102.22558594 C-32.56542547 105.79756217 -30.50209322 109.28353664 -28.375 112.75 C-25.22068956 117.91076513 -22.22510234 123.13654034 -19.3125 128.4375 C-15.32339231 135.69416317 -11.19019416 142.8576876 -7 150 C-2.4093671 157.82632943 2.08849837 165.69087849 6.46191406 173.64038086 C9.14284937 178.49861707 11.91533677 183.29254059 14.75 188.0625 C43.38241935 236.3498162 43.38241935 236.3498162 48.421875 258.734375 C48.78271515 260.95282194 48.78271515 260.95282194 50 262 C53.03311261 275.98259631 53.20819987 288.93725345 51 303 C56.28 303 61.56 303 67 303 C67.02722027 298.8957877 67.04694514 294.79175986 67.0625 290.6875 C67.07087891 289.53958984 67.07925781 288.39167969 67.08789062 287.20898438 C67.23833722 272.68894106 67.23833722 272.68894106 63 259 C61.86760213 255.50552428 60.93575693 251.95121685 59.98242188 248.40429688 C58.53449384 243.24517464 56.49600364 238.72961453 54 234 C53.39879716 232.77450219 52.80235624 231.54665566 52.2109375 230.31640625 C48.52353554 222.74478021 44.58058698 215.40658192 40.26171875 208.17724609 C36.21276077 201.39644295 32.28590275 194.54866105 28.375 187.6875 C27.6884975 186.48395616 27.00197391 185.28042434 26.31542969 184.0769043 C24.91462738 181.62083995 23.51432663 179.16449035 22.11425781 176.70800781 C19.00217396 171.24867123 15.88317988 165.79328415 12.76461792 160.33764648 C11.75182823 158.56569862 10.73927404 156.79361641 9.72680664 155.02148438 C6.74793438 149.80763178 3.76830759 144.59421813 0.78515625 139.3828125 C-4.35800659 130.39539997 -9.47569888 121.3944478 -14.5625 112.375 C-18.62970713 105.16580422 -22.72651497 97.97524817 -26.875 90.8125 C-27.32270752 90.03616211 -27.77041504 89.25982422 -28.23168945 88.45996094 C-30.20109306 85.05441895 -32.18974613 81.66906389 -34.2734375 78.33203125 C-34.92570313 77.27371094 -35.57796875 76.21539062 -36.25 75.125 C-36.81203125 74.24070312 -37.3740625 73.35640625 -37.953125 72.4453125 C-39.27136224 69.36614642 -38.89731907 68.20083271 -38 65 C-35.91332977 60.77038391 -33.45765715 56.74905985 -31.0625 52.6875 C-30.41603516 51.56537109 -29.76957031 50.44324219 -29.10351562 49.28710938 C-28.48283203 48.22685547 -27.86214844 47.16660156 -27.22265625 46.07421875 C-26.65297119 45.10057373 -26.08328613 44.12692871 -25.49633789 43.1237793 C-25.00254639 42.42293213 -24.50875488 41.72208496 -24 41 C-23.34 41 -22.68 41 -22 41 C-21.68885254 41.57741943 -21.37770508 42.15483887 -21.05712891 42.74975586 C-15.47889697 53.08432612 -9.86281356 63.3775468 -3.85302734 73.46826172 C-0.39717906 79.28426791 2.9352759 85.16509256 6.25 91.0625 C10.71557207 99.00443931 15.25989823 106.89407986 19.875 114.75 C25.53195515 124.38809643 30.9843204 134.12820107 36.38305664 143.9128418 C41.15518758 152.53864676 46.08211378 161.06399881 51.07543945 169.56323242 C54.94162551 176.15376045 58.70583185 182.79050698 62.38183594 189.48876953 C64.89481742 194.05529257 67.4963323 198.5588479 70.15087891 203.04443359 C87.0842832 231.75097612 102.23202823 265.62068761 93.9375 299.6875 C93.628125 300.780625 93.31875 301.87375 93 303 C97.95 302.67 102.9 302.34 108 302 C112.16321076 287.99647291 113.72831471 275.44149366 108.75 261.3203125 C107.91081617 258.72408753 107.48282971 256.1946137 107.0625 253.5 C105.73076308 245.69668201 102.53066054 238.84805594 98.9296875 231.85546875 C98.07239938 230.14449457 97.31241953 228.38568062 96.5625 226.625 C92.8410426 217.99121884 88.28533324 209.89369634 83.5 201.8125 C78.72195404 193.68401806 74.00074994 185.52865625 69.375 177.3125 C63.77938974 167.37591956 58.13659544 157.46744998 52.47070312 147.57080078 C51.014974 145.02617468 49.56173805 142.48014236 48.109375 139.93359375 C42.62185837 130.31432157 37.104847 120.71279385 31.5625 111.125 C26.22394337 101.88681051 20.93953438 92.62001172 15.69897461 83.32592773 C12.67278007 77.9592659 9.6413412 72.59584749 6.58447266 67.24658203 C5.61684482 65.5499151 4.65421473 63.85038746 3.69677734 62.14794922 C1.17958433 57.69613035 -1.40905948 53.3144414 -4.15667725 48.99998474 C-5.62363396 46.68722884 -7.05974415 44.35602207 -8.49395752 42.02285767 C-9.53970647 40.34898437 -10.62766246 38.70171646 -11.71630859 37.05541992 C-16.30141679 29.55267522 -16.30141679 29.55267522 -15.48510742 25.34765625 C-14.19817143 22.69288378 -12.70789119 20.40376211 -11 18 C-10.0266737 16.36700532 -9.06169846 14.72900185 -8.10546875 13.0859375 C-7.13702264 11.51302502 -6.16437333 9.94269258 -5.1875 8.375 C-4.68541016 7.56160156 -4.18332031 6.74820313 -3.66601562 5.91015625 C-2.44775832 3.93773966 -1.22575189 1.96776439 0 0 Z " fill="#A3352E" transform="translate(575,104)"/>
<path d="M0 0 C3.30036967 3.09069224 5.1935425 6.7416923 7.3125 10.6875 C11.33408647 18.05513679 15.49635615 25.3265181 19.75 32.5625 C24.59735375 40.8225913 29.34312551 49.13107679 34 57.5 C38.57566965 65.72202617 43.2357929 73.88576249 48 82 C52.73986633 90.07434941 57.38168293 98.19538292 61.9375 106.375 C67.29005013 115.98400215 72.74039697 125.53136434 78.24926758 135.05151367 C89.96158657 155.29370278 101.5408816 175.6134289 113 196 C113.47727539 196.84868652 113.95455078 197.69737305 114.44628906 198.57177734 C124.22870966 215.99182793 124.22870966 215.99182793 128 224 C128.804375 225.7015625 128.804375 225.7015625 129.625 227.4375 C131.13282005 231.34412468 132.19396287 235.25981784 133.24609375 239.30859375 C133.89502473 241.62524373 134.65408312 243.77688935 135.5625 246 C138.87420839 254.5356166 139.32300583 263.50369307 139.25 272.5625 C139.25773438 273.52607422 139.26546875 274.48964844 139.2734375 275.48242188 C139.24760193 285.06095959 137.42713729 293.11020292 134 302 C134.62481262 301.96589523 135.24962524 301.93179047 135.89337158 301.89665222 C142.44805722 301.56008257 148.99516864 301.37482426 155.55761719 301.27368164 C157.9989071 301.21670099 160.43963932 301.12225397 162.87792969 300.98852539 C179.15166344 300.12693564 179.15166344 300.12693564 186 303 C191.54434035 308.0215045 194.39945736 314.79265927 197.05847168 321.65567017 C198.11452604 324.28516063 199.50512709 326.59855319 201 329 C201 329.66 201 330.32 201 331 C178.29426258 331.07022294 155.58854319 331.12305311 132.88271904 331.15543652 C122.33893061 331.17087539 111.79520984 331.1919077 101.25146484 331.22631836 C92.05665576 331.2563122 82.86189569 331.27559663 73.66703904 331.28226548 C68.80286532 331.28616088 63.9388318 331.29525292 59.07470322 331.31719017 C54.48647101 331.3377134 49.89843534 331.34380214 45.31016159 331.33932304 C43.63574654 331.34014122 41.96132419 331.3460118 40.28694916 331.35761642 C30.03947958 331.42509136 20.98293461 330.5132163 11 328 C9.47447021 327.7023114 7.94605614 327.41865263 6.4140625 327.15625 C-0.35799356 325.98335782 -6.66159292 324.73207202 -13 322 C-13.7734375 321.72542969 -14.546875 321.45085937 -15.34375 321.16796875 C-24.92428763 317.69354538 -32.45748199 311.7226791 -40 305 C-39.41681402 300.70491407 -37.87170788 297.74539456 -35.625 294.0625 C-33.2295775 290.11260119 -31.01926554 286.15621833 -29 282 C-28.01 282 -27.02 282 -26 282 C-26 282.66 -26 283.32 -26 284 C-25.41927734 284.2889917 -24.83855469 284.5779834 -24.24023438 284.87573242 C-22.86250948 285.56714733 -21.48801343 286.26509793 -20.11914062 286.97387695 C7.77336691 301.38847506 36.13034444 302.02328807 67 303 C67.02944154 298.89584883 67.04694527 294.79172544 67.0625 290.6875 C67.07506836 288.96563477 67.07506836 288.96563477 67.08789062 287.20898438 C67.23833722 272.68894106 67.23833722 272.68894106 63 259 C61.86760213 255.50552428 60.93575693 251.95121685 59.98242188 248.40429688 C58.53449384 243.24517464 56.49600364 238.72961453 54 234 C53.39879716 232.77450219 52.80235624 231.54665566 52.2109375 230.31640625 C48.52353554 222.74478021 44.58058698 215.40658192 40.26171875 208.17724609 C36.21276077 201.39644295 32.28590275 194.54866105 28.375 187.6875 C27.6884975 186.48395616 27.00197391 185.28042434 26.31542969 184.0769043 C24.91462738 181.62083995 23.51432663 179.16449035 22.11425781 176.70800781 C19.00217396 171.24867123 15.88317988 165.79328415 12.76461792 160.33764648 C11.75182823 158.56569862 10.73927404 156.79361641 9.72680664 155.02148438 C6.74793438 149.80763178 3.76830759 144.59421813 0.78515625 139.3828125 C-4.35800659 130.39539997 -9.47569888 121.3944478 -14.5625 112.375 C-18.62970713 105.16580422 -22.72651497 97.97524817 -26.875 90.8125 C-27.32270752 90.03616211 -27.77041504 89.25982422 -28.23168945 88.45996094 C-30.20109306 85.05441895 -32.18974613 81.66906389 -34.2734375 78.33203125 C-35.25183594 76.74455078 -35.25183594 76.74455078 -36.25 75.125 C-36.81203125 74.24070312 -37.3740625 73.35640625 -37.953125 72.4453125 C-39.27136224 69.36614642 -38.89731907 68.20083271 -38 65 C-35.91332977 60.77038391 -33.45765715 56.74905985 -31.0625 52.6875 C-30.41603516 51.56537109 -29.76957031 50.44324219 -29.10351562 49.28710938 C-28.48283203 48.22685547 -27.86214844 47.16660156 -27.22265625 46.07421875 C-26.65297119 45.10057373 -26.08328613 44.12692871 -25.49633789 43.1237793 C-25.00254639 42.42293213 -24.50875488 41.72208496 -24 41 C-23.34 41 -22.68 41 -22 41 C-21.68885254 41.57741943 -21.37770508 42.15483887 -21.05712891 42.74975586 C-15.47889697 53.08432612 -9.86281356 63.3775468 -3.85302734 73.46826172 C-0.39717906 79.28426791 2.9352759 85.16509256 6.25 91.0625 C10.71557207 99.00443931 15.25989823 106.89407986 19.875 114.75 C25.53195515 124.38809643 30.9843204 134.12820107 36.38305664 143.9128418 C41.15518758 152.53864676 46.08211378 161.06399881 51.07543945 169.56323242 C54.94162551 176.15376045 58.70583185 182.79050698 62.38183594 189.48876953 C64.89481742 194.05529257 67.4963323 198.5588479 70.15087891 203.04443359 C87.0842832 231.75097612 102.23202823 265.62068761 93.9375 299.6875 C93.628125 300.780625 93.31875 301.87375 93 303 C97.95 302.67 102.9 302.34 108 302 C112.16321076 287.99647291 113.72831471 275.44149366 108.75 261.3203125 C107.91081617 258.72408753 107.48282971 256.1946137 107.0625 253.5 C105.73076308 245.69668201 102.53066054 238.84805594 98.9296875 231.85546875 C98.07239938 230.14449457 97.31241953 228.38568062 96.5625 226.625 C92.8410426 217.99121884 88.28533324 209.89369634 83.5 201.8125 C78.72195404 193.68401806 74.00074994 185.52865625 69.375 177.3125 C63.77938974 167.37591956 58.13659544 157.46744998 52.47070312 147.57080078 C51.014974 145.02617468 49.56173805 142.48014236 48.109375 139.93359375 C42.62185837 130.31432157 37.104847 120.71279385 31.5625 111.125 C26.22394337 101.88681051 20.93953438 92.62001172 15.69897461 83.32592773 C12.67278007 77.9592659 9.6413412 72.59584749 6.58447266 67.24658203 C5.61684482 65.5499151 4.65421473 63.85038746 3.69677734 62.14794922 C1.17958433 57.69613035 -1.40905948 53.3144414 -4.15667725 48.99998474 C-5.62363396 46.68722884 -7.05974415 44.35602207 -8.49395752 42.02285767 C-9.53970647 40.34898437 -10.62766246 38.70171646 -11.71630859 37.05541992 C-16.30141679 29.55267522 -16.30141679 29.55267522 -15.48510742 25.34765625 C-14.19817143 22.69288378 -12.70789119 20.40376211 -11 18 C-10.0266737 16.36700532 -9.06169846 14.72900185 -8.10546875 13.0859375 C-7.13702264 11.51302502 -6.16437333 9.94269258 -5.1875 8.375 C-4.68541016 7.56160156 -4.18332031 6.74820313 -3.66601562 5.91015625 C-2.44775832 3.93773966 -1.22575189 1.96776439 0 0 Z " fill="#A2352E" transform="translate(575,104)"/>
<path d="M0 0 C0.66 0 1.32 0 2 0 C3.62109375 1.6796875 3.62109375 1.6796875 5.4375 3.875 C7.58400884 6.46193722 9.16776562 8.11184374 12 10 C12 10.66 12 11.32 12 12 C12.99 12 13.98 12 15 12 C15 12.66 15 13.32 15 14 C15.71929688 14.27972656 16.43859375 14.55945313 17.1796875 14.84765625 C19.88303796 15.9522108 22.49197581 17.17600632 25.125 18.4375 C29.86161927 20.61672944 34.52618654 22.10864272 39.58984375 23.32421875 C41.93325026 23.98128411 43.83331056 24.91233917 46 26 C52.58294577 27.85486317 59.3161225 28.35239759 66.1171875 28.75390625 C69 29 69 29 70.92393804 29.50671428 C73.05931496 30.01409362 74.90822291 30.13034575 77.09980392 30.1386652 C77.9124325 30.14413964 78.72506107 30.14961409 79.56231475 30.15525442 C80.89305128 30.15672158 80.89305128 30.15672158 82.25067139 30.15821838 C83.19738968 30.16315636 84.14410798 30.16809434 85.1195147 30.17318195 C88.29940125 30.18856938 91.47926758 30.19692098 94.65917969 30.20532227 C96.93560464 30.21489981 99.21202781 30.22490981 101.4884491 30.23532104 C107.67602003 30.26238958 113.86359862 30.28338862 120.0511961 30.30332303 C126.5147968 30.32517054 132.9783739 30.35256527 139.44195557 30.37937927 C150.29316219 30.42364468 161.14437601 30.46447711 171.99560547 30.50268555 C183.1723729 30.54204963 194.34912954 30.58347804 205.52587891 30.62768555 C206.21482399 30.63040982 206.90376908 30.63313409 207.61359128 30.63594092 C211.06982934 30.64962055 214.52606723 30.66334079 217.98230505 30.67708123 C246.6548474 30.79101773 275.32741369 30.89776029 304 31 C304.35304199 31.65073486 304.70608398 32.30146973 305.06982422 32.97192383 C306.67007987 35.91958316 308.27251401 38.86605264 309.875 41.8125 C310.43058594 42.83666016 310.98617188 43.86082031 311.55859375 44.91601562 C312.36103516 46.39038086 312.36103516 46.39038086 313.1796875 47.89453125 C313.67194824 48.80050049 314.16420898 49.70646973 314.67138672 50.63989258 C315.70311696 52.47262618 316.83336384 54.25004576 318 56 C318 56.99 318 57.98 318 59 C287.17173124 59.0916565 256.34349426 59.16224654 225.51512139 59.20426132 C221.85855076 59.20926292 218.20198039 59.21444032 214.54541016 59.21972656 C213.81758824 59.2207758 213.08976631 59.22182505 212.33988918 59.22290608 C200.62336816 59.24021408 188.90692731 59.27169743 177.19045351 59.30861118 C165.12856129 59.34629043 153.06671045 59.36829215 141.00476182 59.37635398 C134.24645805 59.3813045 127.48834566 59.39351478 120.73009872 59.42292023 C45.45397974 59.73710135 45.45397974 59.73710135 19 47 C17.3146387 46.24520629 15.62715685 45.49512817 13.9375 44.75 C12.625 44.16666667 11.3125 43.58333333 10 43 C10 42.34 10 41.68 10 41 C9.01 41 8.02 41 7 41 C7 40.34 7 39.68 7 39 C6.27039063 38.75765625 5.54078125 38.5153125 4.7890625 38.265625 C-1.13672576 35.57661184 -5.61585278 30.11693105 -9.125 24.75 C-10.77459818 19.56554858 -8.50799698 15.6474369 -6.125 11 C-5.61195313 9.989375 -5.09890625 8.97875 -4.5703125 7.9375 C-1.59231749 2.36672326 -1.59231749 2.36672326 0 0 Z " fill="#638A2B" transform="translate(505,458)"/>
<path d="M0 0 C1.43930464 2.54065934 2.87648839 5.08248022 4.3125 7.625 C4.71662109 8.33785156 5.12074219 9.05070312 5.53710938 9.78515625 C7.80579511 13.80607893 9.9763644 17.84794508 12 22 C11.12859375 22.32871094 10.2571875 22.65742188 9.359375 22.99609375 C1.37336673 26.18531134 -4.9883954 29.82749681 -11.671875 35.2421875 C-14 37 -14 37 -16 37 C-16 37.66 -16 38.32 -16 39 C-16.66 39 -17.32 39 -18 39 C-18 39.66 -18 40.32 -18 41 C-18.804375 41.639375 -19.60875 42.27875 -20.4375 42.9375 C-25.39635047 46.91854897 -29.10530178 52.01452963 -33 57 C-33.79277344 58.01191406 -34.58554687 59.02382813 -35.40234375 60.06640625 C-39.18585686 64.99567542 -42.68859389 69.8573911 -45.578125 75.359375 C-47.51054574 78.94815637 -49.60516515 82.43417101 -51.6875 85.9375 C-55.14811589 91.78764996 -58.52571051 97.67547812 -61.8125 103.625 C-70.64400268 119.60905895 -79.66552224 135.47399084 -88.90698242 151.22460938 C-93.02395516 158.26491369 -96.98353654 165.37733004 -100.8762207 172.54345703 C-104.88121623 179.87550956 -109.11623513 187.06309513 -113.41040039 194.22900391 C-117.10130744 200.4036263 -120.58515927 206.66907523 -124 213 C-131.18179218 226.16143092 -138.53889594 239.24411921 -146.33520508 252.05273438 C-148.08207718 255.00903204 -148.08207718 255.00903204 -149.4050293 258.36914062 C-150.97497039 261.84934353 -152.27500454 264.31435772 -155 267 C-160.55124673 268.47702474 -165.7539486 268.14440684 -171.4375 267.75 C-172.94705351 267.68974097 -174.45683797 267.63499931 -175.96679688 267.5859375 C-179.64936449 267.45431492 -183.32320589 267.24772388 -187 267 C-185.65544302 263.45565573 -184.08771656 260.19200807 -182.234375 256.88671875 C-181.68136719 255.89865234 -181.12835938 254.91058594 -180.55859375 253.89257812 C-179.66333984 252.30606445 -179.66333984 252.30606445 -178.75 250.6875 C-178.12738281 249.57955078 -177.50476563 248.47160156 -176.86328125 247.33007812 C-172.07886134 238.84423074 -167.18494065 230.42499183 -162.25292969 222.02416992 C-157.47580197 213.86778989 -152.85475457 205.63031259 -148.25878906 197.37084961 C-144.17478231 190.04995291 -139.9920536 182.79284085 -135.75 175.5625 C-130.9028536 167.2990034 -126.17055847 158.98563138 -121.54296875 150.59765625 C-111.36704108 132.16008433 -100.77164888 113.96810335 -90.12475586 95.80004883 C-89.50737549 94.74454834 -88.88999512 93.68904785 -88.25390625 92.6015625 C-87.69517822 91.64717285 -87.1364502 90.6927832 -86.56079102 89.70947266 C-85.10398992 87.18052246 -83.69629227 84.63196874 -82.3125 82.0625 C-68.04588511 55.75363491 -68.04588511 55.75363491 -60 45 C-59.401875 44.13890625 -58.80375 43.2778125 -58.1875 42.390625 C-51.00317922 32.13558647 -42.70422414 22.93580061 -33 15 C-32.071875 14.195625 -31.14375 13.39125 -30.1875 12.5625 C-28 11 -28 11 -25 11 C-25 10.34 -25 9.68 -25 9 C-14.61204912 3.62125863 -14.61204912 3.62125863 -9 2 C-7.7625 1.62875 -6.525 1.2575 -5.25 0.875 C-2 0 -2 0 0 0 Z " fill="#76308E" transform="translate(533,250)"/>
<path d="M0 0 C0.66 0 1.32 0 2 0 C2 0.66 2 1.32 2 2 C2.515625 2.226875 3.03125 2.45375 3.5625 2.6875 C6 4 6 4 9.1875 6.3125 C15.99631908 11.213115 22.40928606 14.41839548 30.6171875 16.32421875 C33 17 33 17 36 19 C41.06567758 20.55632263 46.29699284 21.24537956 51.56640625 21.65625 C54 22 54 22 57.62454224 23.00407982 C61.94656567 24.09307892 66.0003153 24.29003268 70.44091797 24.2784729 C71.65786079 24.2871615 71.65786079 24.2871615 72.89938831 24.29602563 C75.59702924 24.31292684 78.29449806 24.31589356 80.9921875 24.31884766 C82.93423375 24.32815266 84.87627602 24.33832218 86.8183136 24.34928894 C92.07592822 24.37653846 97.33351612 24.39172341 102.59118271 24.40471697 C108.09117439 24.42036959 113.59111168 24.44715303 119.09106445 24.4727478 C129.49953033 24.51949784 139.90800648 24.55626024 150.31652355 24.58942068 C162.16899608 24.62766873 174.02141393 24.67707188 185.87384033 24.72740483 C210.24918634 24.83066855 234.62456749 24.91994704 259 25 C261.13017236 28.72623466 263.25322065 32.45648082 265.375 36.1875 C265.97828125 37.24259766 266.5815625 38.29769531 267.203125 39.38476562 C267.78320312 40.40634766 268.36328125 41.42792969 268.9609375 42.48046875 C269.49509277 43.41785889 270.02924805 44.35524902 270.57958984 45.32104492 C271.91255591 47.83507666 272.99961005 50.33862506 274 53 C247.31195583 53.07035975 220.62392575 53.12311944 193.93580723 53.15543652 C181.54156438 53.17084669 169.14737947 53.19182312 156.75317383 53.22631836 C145.9391378 53.25640114 135.12514376 53.2756174 124.31106704 53.28226548 C118.5953262 53.28614605 112.8797054 53.29514101 107.16400337 53.31719017 C45.52354109 53.54557529 45.52354109 53.54557529 26.23046875 45.84375 C23.52044728 44.81859302 20.76644772 43.98582689 18 43.125 C12.747872 41.39636771 8.5288998 39.11688716 4 36 C3.01 35.443125 2.02 34.88625 1 34.3125 C0.34 33.879375 -0.32 33.44625 -1 33 C-1 32.34 -1 31.68 -1 31 C-1.87398437 30.63261719 -1.87398437 30.63261719 -2.765625 30.2578125 C-5.36302236 28.79564126 -6.83975831 27.15259586 -8.75 24.875 C-9.36359375 24.15054687 -9.9771875 23.42609375 -10.609375 22.6796875 C-11.06828125 22.12539063 -11.5271875 21.57109375 -12 21 C-4.59474805 5.48048261 -4.59474805 5.48048261 0 0 Z " fill="#658C2B" transform="translate(526,423)"/>
<path d="M0 0 C0.66 0 1.32 0 2 0 C2.31114746 0.57741943 2.62229492 1.15483887 2.94287109 1.74975586 C8.52110303 12.08432612 14.13718644 22.3775468 20.14697266 32.46826172 C23.60282094 38.28426791 26.9352759 44.16509256 30.25 50.0625 C34.71557207 58.00443931 39.25989823 65.89407986 43.875 73.75 C49.53195515 83.38809643 54.9843204 93.12820107 60.38305664 102.9128418 C65.15518758 111.53864676 70.08211378 120.06399881 75.07543945 128.56323242 C78.94162551 135.15376045 82.70583185 141.79050698 86.38183594 148.48876953 C88.89481742 153.05529257 91.4963323 157.5588479 94.15087891 162.04443359 C112.21266097 192.66387112 125.97702757 226.09188971 117 262 C108.42 262 99.84 262 91 262 C91.0625 249.6875 91.0625 249.6875 91.09008789 245.87768555 C91.21460044 231.52638563 91.21460044 231.52638563 87 218 C85.86760213 214.50552428 84.93575693 210.95121685 83.98242188 207.40429688 C82.53449384 202.24517464 80.49600364 197.72961453 78 193 C77.39879716 191.77450219 76.80235624 190.54665566 76.2109375 189.31640625 C72.52353554 181.74478021 68.58058698 174.40658192 64.26171875 167.17724609 C60.21276077 160.39644295 56.28590275 153.54866105 52.375 146.6875 C51.6884975 145.48395616 51.00197391 144.28042434 50.31542969 143.0769043 C48.91462738 140.62083995 47.51432663 138.16449035 46.11425781 135.70800781 C43.00217396 130.24867123 39.88317988 124.79328415 36.76461792 119.33764648 C35.75182823 117.56569862 34.73927404 115.79361641 33.72680664 114.02148438 C30.74793438 108.80763178 27.76830759 103.59421813 24.78515625 98.3828125 C19.64199341 89.39539997 14.52430112 80.3944478 9.4375 71.375 C5.37029287 64.16580422 1.27348503 56.97524817 -2.875 49.8125 C-3.32270752 49.03616211 -3.77041504 48.25982422 -4.23168945 47.45996094 C-6.20109306 44.05441895 -8.18974613 40.66906389 -10.2734375 37.33203125 C-11.25183594 35.74455078 -11.25183594 35.74455078 -12.25 34.125 C-12.81203125 33.24070313 -13.3740625 32.35640625 -13.953125 31.4453125 C-15.27136224 28.36614642 -14.89731907 27.20083271 -14 24 C-11.91332977 19.77038391 -9.45765715 15.74905985 -7.0625 11.6875 C-6.41603516 10.56537109 -5.76957031 9.44324219 -5.10351562 8.28710938 C-4.48283203 7.22685547 -3.86214844 6.16660156 -3.22265625 5.07421875 C-2.65297119 4.10057373 -2.08328613 3.12692871 -1.49633789 2.1237793 C-1.00254639 1.42293213 -0.50875488 0.72208496 0 0 Z " fill="#A3352E" transform="translate(551,145)"/>
<path d="M0 0 C0.33 1.65 0.66 3.3 1 5 C1.99 5.33 2.98 5.66 4 6 C5.53515625 8.328125 5.53515625 8.328125 7.0625 11.25 C7.56910156 12.20390625 8.07570313 13.1578125 8.59765625 14.140625 C9.86523401 16.72521252 10.97467415 19.31158581 12 22 C10.82244141 22.54527344 10.82244141 22.54527344 9.62109375 23.1015625 C2.59905066 26.46180398 -3.2916638 29.84627616 -8.49609375 35.67578125 C-10 37 -10 37 -13 37 C-13.2165625 37.54011719 -13.433125 38.08023438 -13.65625 38.63671875 C-15.46631728 41.82012196 -17.96007885 44.21355698 -20.5 46.8125 C-29.60842559 56.42191645 -36.25567349 67.40355361 -42.69921875 78.921875 C-45.00366035 83.03672594 -47.39576363 87.09831121 -49.78588867 91.16381836 C-56.12460694 101.95192139 -62.27295775 112.83162724 -68.3203125 123.78540039 C-73.25610185 132.70793592 -78.32615034 141.54647779 -83.44287109 150.36621094 C-87.71896089 157.74802174 -91.91281471 165.17148436 -96.0625 172.625 C-101.22093128 181.88446767 -106.49929021 191.06583592 -111.86010742 200.20947266 C-117.653883 210.09437667 -123.33027871 220.04341628 -129 230 C-139.56 230 -150.12 230 -161 230 C-159.49435603 226.23589007 -157.96798631 222.96459936 -156.015625 219.44921875 C-155.41709717 218.37019287 -154.81856934 217.29116699 -154.2019043 216.17944336 C-153.55149553 215.01533594 -152.90085499 213.85135799 -152.25 212.6875 C-151.91908356 212.09341339 -151.58816711 211.49932678 -151.2472229 210.88723755 C-145.9238068 201.33140149 -140.4617808 191.8620186 -134.92089844 182.43041992 C-131.53579086 176.6610484 -128.22143567 170.86222899 -125 165 C-121.19569796 158.07822922 -117.24773243 151.24926342 -113.25 144.4375 C-108.37887331 136.13716903 -103.61429454 127.786318 -98.9375 119.375 C-93.91110884 110.33610371 -88.75346098 101.38878225 -83.43725586 92.51708984 C-79.79739708 86.4271552 -76.37191104 80.24164584 -73 74 C-61.38821943 52.66628835 -49.26062713 34.18378516 -32 17 C-31.13117188 16.13117188 -30.26234375 15.26234375 -29.3671875 14.3671875 C-24.14161521 9.44128961 -18.39717541 6.1985877 -12 3 C-11.22914063 2.57332031 -10.45828125 2.14664062 -9.6640625 1.70703125 C-5.97788128 -0.30049867 -4.01591403 -1.35040625 0 0 Z " fill="#772F8F" transform="translate(554,287)"/>
<path d="M0 0 C0.66 0.33 1.32 0.66 2 1 C2 1.66 2 2.32 2 3 C2.58072266 3.2889917 3.16144531 3.5779834 3.75976562 3.87573242 C5.13749052 4.56714733 6.51198657 5.26509793 7.88085938 5.97387695 C36.32799998 20.67510447 65.23414439 21.40369745 96.69883913 20.79766601 C102.13633708 20.69384638 107.57334542 20.6278102 113.01164246 20.58354187 C113.81167704 20.5769681 114.61171162 20.57039432 115.43598968 20.56362134 C118.71521185 20.53727982 121.99444194 20.51202196 125.27367365 20.48689902 C134.49905794 20.41431775 143.72115999 20.30584125 152.94458008 20.09838867 C160.34582137 19.93219227 167.74378746 19.84104728 175.1469509 19.83644933 C179.04392393 19.83123472 182.93230931 19.78957515 186.82715797 19.65560341 C210.31850238 18.87954856 210.31850238 18.87954856 216.46209335 24.08687973 C220.50911344 29.11436749 223.00520381 34.6064768 225.13973045 40.66190147 C226.12025956 43.32684953 227.4863173 45.60519752 229 48 C229 48.66 229 49.32 229 50 C206.29426258 50.07022294 183.58854319 50.12305311 160.88271904 50.15543652 C150.33893061 50.17087539 139.79520984 50.1919077 129.25146484 50.22631836 C120.05665576 50.2563122 110.86189569 50.27559663 101.66703904 50.28226548 C96.80286532 50.28616088 91.9388318 50.29525292 87.07470322 50.31719017 C82.48647101 50.3377134 77.89843534 50.34380214 73.31016159 50.33932304 C71.63574654 50.34014122 69.96132419 50.3460118 68.28694916 50.35761642 C58.03947958 50.42509136 48.98293461 49.5132163 39 47 C37.47447021 46.7023114 35.94605614 46.41865263 34.4140625 46.15625 C27.64200644 44.98335782 21.33840708 43.73207202 15 41 C14.2265625 40.72542969 13.453125 40.45085937 12.65625 40.16796875 C3.07571237 36.69354538 -4.45748199 30.7226791 -12 24 C-11.41681402 19.70491407 -9.87170788 16.74539456 -7.625 13.0625 C-5.22858048 9.11095717 -3.05917162 5.13640614 -1 1 C-0.67 0.67 -0.34 0.34 0 0 Z " fill="#6C982D" transform="translate(547,385)"/>
<path d="M0 0 C4.4826184 7.4852274 8.66222612 14.52556968 11 23 C5.25 28 5.25 28 3 28 C3 28.66 3 29.32 3 30 C2.443125 30.226875 1.88625 30.45375 1.3125 30.6875 C-1.64578852 32.36652862 -3.61880833 34.57315127 -6 37 C-6.76699219 37.7321875 -7.53398438 38.464375 -8.32421875 39.21875 C-14.98501009 45.64834032 -20.51899147 52.57801047 -26 60 C-26.82177734 61.02480469 -26.82177734 61.02480469 -27.66015625 62.0703125 C-29.20041447 64.28864358 -30.0064176 66.48874778 -31 69 C-32.3282032 71.39565486 -33.67397752 73.76525696 -35.0625 76.125 C-37.88515439 80.89033897 -37.88515439 80.89033897 -40 86 C-40.99 86.66 -41.98 87.32 -43 88 C-44.1479427 89.77570706 -44.1479427 89.77570706 -45.0625 91.8125 C-45.38347656 92.47894531 -45.70445312 93.14539063 -46.03515625 93.83203125 C-46.71502011 95.35966057 -47.34914092 96.90805374 -47.94921875 98.46875 C-49.02114141 101.050928 -50.28652784 103.30739071 -51.75 105.6875 C-52.28367187 106.56277344 -52.81734375 107.43804687 -53.3671875 108.33984375 C-53.90601563 109.21769531 -54.44484375 110.09554687 -55 111 C-60.94310943 120.78203687 -66.68381334 130.6795315 -72.125 140.75 C-74.39533601 144.93858783 -76.78412829 149.03193887 -79.25390625 153.10546875 C-81.4232851 156.70168738 -83.55782111 160.31766558 -85.6875 163.9375 C-86.10604248 164.6485791 -86.52458496 165.3596582 -86.95581055 166.09228516 C-89.33807351 170.14744795 -91.70384172 174.21169513 -94.0546875 178.28515625 C-94.55653564 179.15470947 -95.05838379 180.0242627 -95.57543945 180.92016602 C-96.55467175 182.61899177 -97.53241282 184.31867811 -98.50854492 186.01928711 C-98.95045166 186.78635986 -99.3923584 187.55343262 -99.84765625 188.34375 C-100.23961182 189.02630859 -100.63156738 189.70886719 -101.03540039 190.41210938 C-102 192 -102 192 -103 193 C-105.3756852 193.0883967 -107.72208674 193.11530305 -110.09765625 193.09765625 C-111.16094398 193.09553383 -111.16094398 193.09553383 -112.24571228 193.09336853 C-114.51801712 193.08775443 -116.79022475 193.07519963 -119.0625 193.0625 C-120.59960796 193.05748681 -122.13671745 193.05292359 -123.67382812 193.04882812 C-127.44925642 193.03778042 -131.22461171 193.02050641 -135 193 C-131.71357266 186.29577163 -128.3749569 179.6954221 -124.5 173.3125 C-120.30992439 166.29830858 -116.28642421 159.2011633 -112.3125 152.0625 C-106.81188934 142.19059294 -101.20846882 132.38332285 -95.54296875 122.60522461 C-91.41462225 115.4734202 -87.34649888 108.31052254 -83.3125 101.125 C-78.70733038 92.92243831 -73.92627873 84.84544949 -69.03979492 76.80786133 C-65.82719543 71.48670604 -62.97631782 66.12119838 -60.28125 60.51953125 C-58.62880338 57.27005542 -56.69097419 54.31249387 -54.609375 51.32421875 C-53.45931721 49.66333433 -52.34879474 47.97479172 -51.265625 46.26953125 C-46.28369896 38.47755189 -40.59983883 31.58125659 -34.46679688 24.67749023 C-33.46623577 23.53320672 -32.48373056 22.3729435 -31.51757812 21.19946289 C-28.22644829 17.21515227 -24.91857363 14.1260874 -20.75 11.0625 C-19.71359375 10.29035156 -18.6771875 9.51820313 -17.609375 8.72265625 C-15 7 -15 7 -13 7 C-13 6.34 -13 5.68 -13 5 C-11.58957044 4.15615325 -10.17135868 3.32530504 -8.75 2.5 C-7.56664062 1.80390625 -7.56664062 1.80390625 -6.359375 1.09375 C-4 0 -4 0 0 0 Z " fill="#783091" transform="translate(575,323)"/>
<path d="M0 0 C8.58 0 17.16 0 26 0 C26.20496094 3.30902344 26.40992188 6.61804688 26.62109375 10.02734375 C26.82188292 13.21776393 27.02426607 16.40807925 27.22680664 19.59838867 C27.3671493 21.82256773 27.5058241 24.04685267 27.64282227 26.27124023 C27.83956722 29.46106541 28.04222829 32.65046676 28.24609375 35.83984375 C28.3065538 36.84087631 28.36701385 37.84190887 28.42930603 38.87327576 C28.48929276 39.79415482 28.54927948 40.71503387 28.61108398 41.66381836 C28.68769508 42.88626503 28.68769508 42.88626503 28.76585388 44.13340759 C28.80763268 46.01216544 28.80763268 46.01216544 30 47 C30.05534912 45.86046875 30.11069824 44.7209375 30.16772461 43.546875 C30.3752909 39.29004844 30.58684529 35.03342758 30.79956055 30.77685547 C30.89080606 28.93999455 30.98099234 27.10308068 31.07006836 25.26611328 C31.19882372 22.61475995 31.33147809 19.96362496 31.46484375 17.3125 C31.52272316 16.09481934 31.52272316 16.09481934 31.58177185 14.85253906 C31.62173782 14.07233398 31.6617038 13.29212891 31.70288086 12.48828125 C31.73619003 11.81321533 31.76949921 11.13814941 31.80381775 10.44262695 C32.08431302 6.95023504 32.5654272 3.47658242 33 0 C41.91 0 50.82 0 60 0 C60 34.98 60 69.96 60 106 C54.39 106 48.78 106 43 106 C42.67 89.17 42.34 72.34 42 55 C40.72366708 71.40965026 40.72366708 71.40965026 39.45727539 87.82006836 C39.29609793 89.86835536 39.1345818 91.91661575 38.97265625 93.96484375 C38.85077942 95.57655457 38.85077942 95.57655457 38.72644043 97.2208252 C38.64535034 98.23584106 38.56426025 99.25085693 38.48071289 100.29663086 C38.41187393 101.18265488 38.34303497 102.06867889 38.27210999 102.98155212 C38 105 38 105 37 106 C31.72 106 26.44 106 21 106 C19.68 88.51 18.36 71.02 17 53 C16.67 70.49 16.34 87.98 16 106 C10.39 106 4.78 106 -1 106 C-1.14721055 81.20320091 -0.87990962 56.41838073 -0.5 31.625 C-0.48804218 30.84439713 -0.47608437 30.06379425 -0.46376419 29.25953674 C-0.31391766 19.50627995 -0.15876576 9.75311573 0 0 Z " fill="#00D3AF" transform="translate(466,602)"/>
<path d="M0 0 C37 0 37 0 47 8 C52.38365967 15.20547677 51.56688522 24.3336601 51.49609375 32.875 C51.49624905 34.40999419 51.49774308 35.94498876 51.50050354 37.47998047 C51.50188165 40.68409742 51.48942913 43.88776354 51.46655273 47.09179688 C51.43816957 51.17693779 51.4409132 55.26133084 51.45364285 59.3465271 C51.4606332 62.51235218 51.4527727 65.67800763 51.44038582 68.84381104 C51.43590383 70.3491348 51.43550573 71.85447698 51.43945122 73.35980225 C51.46494153 91.63832399 51.46494153 91.63832399 45.75 99.375 C34.11022323 110.48569601 13.52841358 106 0 106 C0 71.02 0 36.04 0 0 Z " fill="#00D5B1" transform="translate(602,602)"/>
<path d="M0 0 C7.59 0 15.18 0 23 0 C23 9.57 23 19.14 23 29 C32.57 29 42.14 29 52 29 C52 36.59 52 44.18 52 52 C42.06477066 53.016103 32.92487162 52.77672908 23 52 C23 61.57 23 71.14 23 81 C15.74 81 8.48 81 1 81 C-0.12836136 71.09549473 0.28010745 61.91851963 1 52 C-9.23 52 -19.46 52 -30 52 C-30 44.41 -30 36.82 -30 29 C-20.1 29 -10.2 29 0 29 C0 19.43 0 9.86 0 0 Z " fill="#D1F7F0" transform="translate(729,553)"/>
<path d="M0 0 C12.87 0 25.74 0 39 0 C39 5.94 39 11.88 39 18 C32.4 18 25.8 18 19 18 C19.03953747 24.49198522 19.03953747 24.49198522 19.09008789 30.98388672 C19.09258545 31.79100098 19.09508301 32.59811523 19.09765625 33.4296875 C19.10551147 34.67081299 19.10551147 34.67081299 19.11352539 35.93701172 C19 38 19 38 18 40 C24.93 40 31.86 40 39 40 C39 45.61 39 51.22 39 57 C28.605 57.495 28.605 57.495 18 58 C18 68.23 18 78.46 18 89 C24.93 89 31.86 89 39 89 C39 94.61 39 100.22 39 106 C26.13 106 13.26 106 0 106 C0 78.94 0 51.88 0 24 C0.66 24 1.32 24 2 24 C2.08912219 20.16774573 1.87867729 16.73437848 1 13 C2.65 12.34 4.3 11.68 6 11 C5.38125 9.865625 4.7625 8.73125 4.125 7.5625 C3.77695312 6.92441406 3.42890625 6.28632812 3.0703125 5.62890625 C2.08589976 3.83381685 2.08589976 3.83381685 0 3 C0 2.01 0 1.02 0 0 Z " fill="#00D4B0" transform="translate(545,602)"/>
<path d="M0 0 C7.95374757 19.84384766 12.81562545 36.4925844 12 58 C-1.43103035 58.47584222 -14.38558029 54.16365999 -26.4375 48.5 C-27.22358643 48.13269775 -28.00967285 47.76539551 -28.81958008 47.38696289 C-33.32193623 45.16352259 -36.90930921 43.010917 -40 39 C-40 29.94135532 -25.46649644 18.49499631 -19.5625 12.375 C-17 10 -17 10 -15 10 C-14.67 9.01 -14.34 8.02 -14 7 C-11.9375 6.3125 -11.9375 6.3125 -10 6 C-10 5.34 -10 4.68 -10 4 C-8.71086513 3.32845067 -7.41859796 2.66291141 -6.125 2 C-5.40570312 1.62875 -4.68640625 1.2575 -3.9453125 0.875 C-2 0 -2 0 0 0 Z " fill="#020202" transform="translate(588,347)"/>
<path d="M0 0 C1.58206057 0.00667536 3.16410534 0.0186375 4.74609375 0.03515625 C5.55240234 0.03966797 6.35871094 0.04417969 7.18945312 0.04882812 C9.18753131 0.06065107 11.18557158 0.07858711 13.18359375 0.09765625 C13.37829577 49.56874567 13.37829577 49.56874567 12.74609375 67.09765625 C12.70685791 68.22075195 12.66762207 69.34384766 12.62719727 70.50097656 C12.32018556 77.82447263 12.32018556 77.82447263 11.18359375 80.09765625 C11.03136402 81.76331374 10.9344216 83.43422121 10.8671875 85.10546875 C10.82529297 86.09160156 10.78339844 87.07773437 10.74023438 88.09375 C10.70091797 89.12628906 10.66160156 90.15882813 10.62109375 91.22265625 C10.57791016 92.26292969 10.53472656 93.30320312 10.49023438 94.375 C10.38396495 96.94908153 10.28192792 99.52326133 10.18359375 102.09765625 C10.84359375 102.09765625 11.50359375 102.09765625 12.18359375 102.09765625 C12.18359375 103.41765625 12.18359375 104.73765625 12.18359375 106.09765625 C6.57359375 106.09765625 0.96359375 106.09765625 -4.81640625 106.09765625 C-4.83952675 92.42463063 -4.85731984 78.75160961 -4.86821842 65.07856846 C-4.87344789 58.73035049 -4.88054669 52.38214585 -4.8918457 46.03393555 C-4.90267231 39.91317043 -4.9086826 33.79241816 -4.91128349 27.67164421 C-4.91313815 25.33074682 -4.91675954 22.98985016 -4.92213631 20.64895821 C-4.92934373 17.38257423 -4.93039732 14.1162441 -4.92993164 10.84985352 C-4.93352692 9.87162125 -4.93712219 8.89338898 -4.94082642 7.88551331 C-4.93945175 7.00065247 -4.93807709 6.11579163 -4.93666077 5.20411682 C-4.93758256 4.43073251 -4.93850435 3.65734819 -4.93945408 2.86052799 C-4.69847001 -0.59198316 -3.58655406 0.09177467 0 0 Z " fill="#00CDAA" transform="translate(676.81640625,602.90234375)"/>
<path d="M0 0 C5.386819 0.35131428 5.386819 0.35131428 7.65283203 2.74853516 C12.07125903 10.13286531 10.15606076 22.31966949 10.125 30.625 C10.12311676 31.28242187 10.12123352 31.93984375 10.11929321 32.6171875 C10.01055249 64.98944751 10.01055249 64.98944751 5 70 C3.00041636 70.04080783 0.99954746 70.04254356 -1 70 C-1.02312566 61.02079223 -1.04091623 52.04159463 -1.05181217 43.06236362 C-1.05704051 38.89337172 -1.06413726 34.72440013 -1.07543945 30.55541992 C-1.08627008 26.53542314 -1.09227721 22.51544595 -1.09487724 18.49543571 C-1.09673118 16.95837025 -1.10035119 15.42130591 -1.10573006 13.88424873 C-1.11294284 11.73864513 -1.11399084 9.59312345 -1.11352539 7.44750977 C-1.115746 6.22395279 -1.11796661 5.00039581 -1.12025452 3.73976135 C-1 1 -1 1 0 0 Z " fill="#000B09" transform="translate(623,620)"/>
<path d="M0 0 C0.33 0 0.66 0 1 0 C1 10.23 1 20.46 1 31 C-8.57 31 -18.14 31 -28 31 C-28 37.6 -28 44.2 -28 51 C-18.43 51 -8.86 51 1 51 C1 51.33 1 51.66 1 52 C-9.23 52 -19.46 52 -30 52 C-30 44.41 -30 36.82 -30 29 C-20.1 29 -10.2 29 0 29 C0 19.43 0 9.86 0 0 Z " fill="#788E8A" transform="translate(729,553)"/>
<path d="M0 0 C9.57 0 19.14 0 29 0 C29 9.57 29 19.14 29 29 C28.34 29 27.68 29 27 29 C26.93941406 28.32453125 26.87882813 27.6490625 26.81640625 26.953125 C26.69072266 25.61507812 26.69072266 25.61507812 26.5625 24.25 C26.48128906 23.36828125 26.40007813 22.4865625 26.31640625 21.578125 C26.03761535 19.30649548 25.61209423 17.20148177 25 15 C25.66 15 26.32 15 27 15 C27 10.38 27 5.76 27 1 C18.09 1 9.18 1 0 1 C0 0.67 0 0.34 0 0 Z " fill="#2D3534" transform="translate(701,605)"/>
<path d="M0 0 C1.87476019 3.74952038 2.27486272 5.21273132 2.4140625 9.203125 C2.47207031 10.67265625 2.47207031 10.67265625 2.53125 12.171875 C2.5621875 13.18765625 2.593125 14.2034375 2.625 15.25 C2.66367187 16.28125 2.70234375 17.3125 2.7421875 18.375 C2.83631674 20.9164894 2.92194979 23.45797433 3 26 C2.34 26 1.68 26 1 26 C1 36.23 1 46.46 1 57 C0.67 57 0.34 57 0 57 C0 38.19 0 19.38 0 0 Z " fill="#00362C" transform="translate(482,651)"/>
<path d="M0 0 C6.6 0 13.2 0 20 0 C20 0.66 20 1.32 20 2 C17 4 17 4 14 4 C14 3.01 14 2.02 14 1 C9.71 1 5.42 1 1 1 C1 10.24 1 19.48 1 29 C0.67 29 0.34 29 0 29 C0 19.43 0 9.86 0 0 Z " fill="#2F3836" transform="translate(752,605)"/>
<path d="M0 0 C6.27 0 12.54 0 19 0 C19 0.66 19 1.32 19 2 C16 4 16 4 13 4 C13 3.01 13 2.02 13 1 C8.71 1 4.42 1 0 1 C0 0.67 0 0.34 0 0 Z " fill="#212726" transform="translate(753,605)"/>
</svg>
